<?xml version="1.0" encoding="UTF-8"?>
<svg width="443px" height="86px" viewBox="0 0 443 86" version="1.1" xmlns="http://www.w3.org/2000/svg" xmlns:xlink="http://www.w3.org/1999/xlink">
    <!-- Generator: Sketch 43.2 (39069) - http://www.bohemiancoding.com/sketch -->
    <title>Untitled</title>
    <desc>Created with Sketch.</desc>
    <defs></defs>
    <g id="Page-1" stroke="none" stroke-width="1" fill="none" fill-rule="evenodd">
        <g id="logo">
            <text id="SARA.EITAN" font-family="NovemberHebrew-Heavy, November Hebrew" font-size="54" font-weight="600" fill="#F4F4F4">
                <tspan x="116" y="65">SARA.EITAN</tspan>
            </text>
            <path d="M100.586,42.788 C100.586,37.757 99.081,32.934 96.112,28.449 C93.446,24.424 89.711,20.861 85.012,17.858 C75.938,12.062 64.012,8.869 51.433,8.869 C47.231,8.869 43.089,9.224 39.072,9.928 C36.58,7.595 33.662,5.496 30.575,3.837 C14.081,-4.157 0.403,3.649 0.403,3.649 C0.403,3.649 13.12,14.096 11.052,23.253 C5.363,28.897 2.279,35.703 2.279,42.788 C2.279,42.81 2.28,42.833 2.28,42.856 C2.28,42.878 2.279,42.9 2.279,42.924 C2.279,50.009 5.362,56.815 11.052,62.458 C13.12,71.616 0.403,82.063 0.403,82.063 C0.403,82.063 14.081,89.868 30.575,81.875 C33.662,80.216 36.579,78.116 39.072,75.784 C43.09,76.487 47.231,76.842 51.433,76.842 C64.013,76.842 75.938,73.651 85.012,67.855 C89.711,64.852 93.446,61.29 96.112,57.263 C99.081,52.779 100.586,47.954 100.586,42.925 C100.586,42.902 100.585,42.88 100.585,42.857 C100.585,42.834 100.586,42.81 100.586,42.788 Z" id="Shape" fill="#C1272D" fill-rule="nonzero"></path>
            <path d="M51.433,15.982 C74.726,15.982 93.61,28.044 93.61,42.923 C93.61,57.801 74.726,69.864 51.433,69.864 C46.246,69.864 41.279,69.264 36.69,68.171 C32.026,73.781 21.766,81.582 11.799,79.061 C15.041,75.579 19.844,69.695 18.816,60.003 C12.842,55.355 9.256,49.406 9.256,42.923 C9.255,28.043 28.139,15.982 51.433,15.982" id="Shape" fill="#FFFFFF" fill-rule="nonzero"></path>
            <g id="Group" transform="translate(26.000000, 38.000000)" fill-rule="nonzero" fill="#C1272D">
                <circle id="Oval" cx="25.433" cy="5.79" r="5.603"></circle>
                <circle id="Oval" cx="44.913" cy="5.79" r="5.603"></circle>
                <circle id="Oval" cx="5.952" cy="5.79" r="5.602"></circle>
            </g>
            <path d="M51.433,66.319 C46.246,66.319 41.279,65.799 36.69,64.851 C32.572,69.145 24.09,74.917 15.3,74.705 C14.142,76.46 12.883,77.895 11.799,79.06 C21.766,81.581 32.026,73.781 36.69,68.17 C41.279,69.264 46.247,69.863 51.433,69.863 C74.539,69.863 93.303,57.992 93.602,43.278 C93.303,56.032 74.539,66.319 51.433,66.319 Z" id="Shape" fill="#CCCCCC" fill-rule="nonzero"></path>
        </g>
    </g>
</svg>